<?xml version="1.0" standalone="no"?>
<!DOCTYPE svg PUBLIC "-//W3C//DTD SVG 20010904//EN"
 "http://www.w3.org/TR/2001/REC-SVG-20010904/DTD/svg10.dtd">
<svg version="1.0" xmlns="http://www.w3.org/2000/svg"
 width="750.000000pt" height="750.000000pt" viewBox="0 0 750.000000 750.000000"
 preserveAspectRatio="xMidYMid meet">
<metadata>
Created by potrace 1.14, written by Peter Selinger 2001-2017
</metadata>
<g transform="translate(0.000000,750.000000) scale(0.100000,-0.100000)"
fill="#000000" stroke="none">
<path d="M1138 5475 c-37 -20 -54 -37 -75 -78 l-27 -52 2 -320 c1 -176 2 -895
2 -1598 l1 -1278 27 -43 c17 -27 45 -54 75 -71 l48 -27 307 1 307 0 47 26 c54
30 59 36 82 95 16 41 18 93 17 585 0 627 -4 602 90 668 l54 38 385 -4 385 -3
56 -32 c44 -25 59 -41 77 -79 20 -47 21 -65 27 -598 l7 -550 25 -38 c19 -30
42 -47 99 -73 l75 -34 287 3 287 3 40 29 c23 16 53 46 68 68 l28 38 0 282 c1
155 1 302 0 327 0 25 0 617 0 1315 l1 1270 -25 55 c-37 83 -55 87 -402 95
-261 7 -285 6 -358 -13 -43 -11 -80 -22 -81 -24 -2 -2 -13 -30 -26 -62 -23
-59 -24 -65 -20 -330 2 -149 4 -364 3 -478 -1 -204 -1 -207 -28 -256 -18 -33
-40 -57 -68 -72 -47 -27 -122 -31 -577 -32 -234 0 -259 1 -301 20 -34 15 -53
32 -75 68 l-29 49 0 491 0 491 -23 49 c-17 35 -35 56 -65 74 -42 24 -44 24
-362 27 l-320 3 -47 -25z"/>
<path d="M4943 5474 c-39 -17 -53 -31 -78 -75 l-29 -54 0 -235 0 -235 29 -54
30 -55 147 -49 c145 -48 148 -49 182 -96 l35 -47 -9 -214 c-5 -136 -4 -248 2
-305 6 -49 8 -168 5 -263 -3 -95 -2 -210 3 -255 7 -61 6 -95 -4 -132 -9 -37
-10 -73 -4 -140 5 -49 8 -140 6 -201 -3 -90 -9 -122 -29 -167 l-24 -57 -164
-52 -163 -52 -34 -50 -34 -51 0 -243 c0 -237 1 -244 24 -291 42 -82 21 -79
872 -85 l731 -4 47 28 c27 15 58 44 71 66 23 38 24 46 23 245 0 113 3 227 7
252 7 44 5 50 -29 92 -36 43 -42 46 -203 97 l-166 53 -28 45 -28 45 -1 275 c0
151 -1 307 -1 345 0 39 0 284 1 545 l1 475 27 43 c37 60 112 102 183 103 73 1
132 37 170 104 l28 50 2 235 c2 230 1 236 -23 290 l-25 55 -84 23 c-84 23 -84
23 -751 20 -654 -2 -669 -3 -715 -24z"/>
</g>
</svg>
